<svg xmlns="http://www.w3.org/2000/svg" viewBox="0 0 512 512" fill="none">
  <defs>
    <linearGradient id="fire" x1="256" y1="20" x2="256" y2="492" gradientUnits="userSpaceOnUse">
      <stop offset="0" stop-color="#FFE082"/>
      <stop offset="0.35" stop-color="#FFB300"/>
      <stop offset="0.7" stop-color="#FF6F00"/>
      <stop offset="1" stop-color="#E53935"/>
    </linearGradient>
    <linearGradient id="inner" x1="256" y1="70" x2="256" y2="442" gradientUnits="userSpaceOnUse">
      <stop offset="0" stop-color="#FFF8E1" stop-opacity="0.95"/>
      <stop offset="1" stop-color="#FFCC80" stop-opacity="0.65"/>
    </linearGradient>
  </defs>

  <circle cx="256" cy="256" r="242" stroke="url(#fire)" stroke-width="26"/>

  <path d="M256 28c-20 30-16 50 3 76 20-24 24-44-3-76Z" fill="url(#inner)"/>
  <path d="M121 64c3 31 17 50 42 66 7-31-3-48-42-66Z" fill="url(#inner)"/>
  <path d="M391 64c-39 18-49 35-42 66 25-16 39-35 42-66Z" fill="url(#inner)"/>

  <path d="M68 121c31 3 50 17 66 42-31 7-48-3-66-42Z" fill="url(#inner)"/>
  <path d="M444 121c-18 39-35 49-66 42 16-25 35-39 66-42Z" fill="url(#inner)"/>

  <path d="M28 256c30-20 50-16 76 3-24 20-44 24-76-3Z" fill="url(#inner)"/>
  <path d="M484 256c-32 27-52 23-76 3 26-19 46-23 76-3Z" fill="url(#inner)"/>

  <path d="M68 391c31-3 50-17 66-42-31-7-48 3-66 42Z" fill="url(#inner)"/>
  <path d="M444 391c-31-3-50-17-66-42 31-7 48 3 66 42Z" fill="url(#inner)"/>

  <path d="M121 444c39-18 49-35 42-66-25 16-39 35-42 66Z" fill="url(#inner)"/>
  <path d="M391 444c-3-31-17-50-42-66-7 31 3 48 42 66Z" fill="url(#inner)"/>

  <path d="M256 484c20-30 16-50-3-76-20 24-24 44 3 76Z" fill="url(#inner)"/>

  <circle cx="256" cy="256" r="192" stroke="url(#fire)" stroke-width="10" stroke-opacity="0.8"/>
</svg>
